# xmcd
# 
# Track frame offsets:
#     150
#     20984
#     36965
#     70048
#     95800
#     115209
#     142807
#     167782
#     186294
#     203002
#     227458
#     259483
# 
# Disc length: 3713
# 
# Revision: 0
# Processed by: cddbd v1.5.2PL0 Copyright (c) Steve Scherf et al.
# Submitted via: fre:ac v1.0.31
# 
DISCID=ab0e7f0c
DTITLE=Daddy MT and The Matches - Lightin' Up
DYEAR=2016
DGENRE=Blues
TTITLE0=Daddy Before Anything Else
TTITLE1=A Good Man
TTITLE2=I Ain't Got Nobody
TTITLE3=Be Sure You Got It
TTITLE4=How Can I Thank You Babe
TTITLE5=This Is The Blues
TTITLE6=30 Hours A Day
TTITLE7=She Tells Me
TTITLE8=Good Thing
TTITLE9=I'll Never Get That Chance
TTITLE10=You Must Be Crazy
TTITLE11=Your My Man
EXTD=
EXTT0=
EXTT1=
EXTT2=
EXTT3=
EXTT4=
EXTT5=
EXTT6=
EXTT7=
EXTT8=
EXTT9=
EXTT10=
EXTT11=
PLAYORDER=
